Exact Audio Copy V0.99 prebeta 5 from 4. May 2009

EAC extraction logfile from 25. April 2012, 14:42

Belphegor / Bloodbath In Paradise (Austria Belphegor CD1)

Used drive  : PLEXTOR DVDR   PX-760A   Adapter: 0  ID: 0

Read mode               : Secure
Utilize accurate stream : Yes
Defeat audio cache      : Yes
Make use of C2 pointers : No

Read offset correction                      : 30
Overread into Lead-In and Lead-Out          : No
Fill up missing offset samples with silence : Yes
Delete leading and trailing silent blocks   : No
Null samples used in CRC calculations       : Yes
Used interface                              : Native Win32 interface for Win NT & 2000

Used output format              : User Defined Encoder
Selected bitrate                : 1024 kBit/s
Quality                         : High
Add ID3 tag                     : No
Command line compressor         : C:\Program Files (x86)\Exact Audio Copy\Flac\flac.exe
Additional command line options : -8 -V %s


TOC of the extracted CD

     Track |   Start  |  Length  | Start sector | End sector 
    ---------------------------------------------------------
        1  |  0:00.00 |  6:33.50 |         0    |    29524   
        2  |  6:33.50 |  5:45.00 |     29525    |    55399   
        3  | 12:18.50 |  5:11.00 |     55400    |    78724   
        4  | 17:29.50 |  4:54.50 |     78725    |   100824   


Range status and errors

Selected range

     Filename D:\bki71\Belphegor\Belphegor - Bloodbath In Paradise (Austria Belphegor CD1).wav

     Peak level 100.0 %
     Range quality 100.0 %
     Test CRC 3BE5F785
     Copy CRC 3BE5F785
     Copy OK

No errors occurred

 
AccurateRip summary
 
Track  1  not present in database
Track  2  not present in database
Track  3  not present in database
Track  4  not present in database
 
None of the tracks are present in the AccurateRip database

End of status report
